<?xml version="1.0" encoding="utf-8"?>
<!-- Generator: Adobe Illustrator 22.0.0, SVG Export Plug-In . SVG Version: 6.00 Build 0)  -->
<svg version="1.1" id="Capa_1" xmlns="http://www.w3.org/2000/svg" xmlns:xlink="http://www.w3.org/1999/xlink" x="0px" y="0px"
	 viewBox="0 0 511.6 511.6" style="enable-background:new 0 0 511.6 511.6;" xml:space="preserve">
<style type="text/css">
	.st0{fill:#FFFFFF;}
</style>
<g>
	<g>
		<rect x="134.8" y="54.8" class="st0" width="17.7" height="401.7"/>
		<rect x="98.8" y="54.8" class="st0" width="8.8" height="401.7"/>
		<rect x="197.6" y="54.8" class="st0" width="8.9" height="401.7"/>
		<rect x="179.6" y="54.8" class="st0" width="8.9" height="401.7"/>
		<rect x="26.8" y="54.8" class="st0" width="9.1" height="401.7"/>
		<rect x="54" y="54.8" class="st0" width="8.9" height="401.7"/>
		<rect y="54.8" class="st0" width="18" height="402"/>
		<rect x="215.6" y="54.8" class="st0" width="8.9" height="401.7"/>
		<rect x="394.9" y="54.8" class="st0" width="18" height="401.7"/>
		<rect x="440" y="54.8" class="st0" width="26.8" height="401.7"/>
		<rect x="475.7" y="54.8" class="st0" width="9.1" height="401.7"/>
		<rect x="493.6" y="54.8" class="st0" width="18" height="402"/>
		<rect x="332" y="54.8" class="st0" width="18" height="401.7"/>
		<rect x="368" y="54.8" class="st0" width="18" height="401.7"/>
		<rect x="296.1" y="54.8" class="st0" width="18" height="401.7"/>
		<rect x="251.2" y="54.8" class="st0" width="18" height="401.7"/>
	</g>
</g>
</svg>
