<?xml version="1.0" encoding="UTF-8"?>
<svg enable-background="new 0 0 511.6 511.6" version="1.1" viewBox="0 0 511.6 511.6" xml:space="preserve" xmlns="http://www.w3.org/2000/svg">
<style type="text/css">
	.st0{fill:#FFFFFF;}
</style>
		<rect class="st0" x="134.8" y="54.8" width="17.7" height="401.7"/>
		<rect class="st0" x="98.8" y="54.8" width="8.8" height="401.7"/>
		<rect class="st0" x="197.6" y="54.8" width="8.9" height="401.7"/>
		<rect class="st0" x="179.6" y="54.8" width="8.9" height="401.7"/>
		<rect class="st0" x="26.8" y="54.8" width="9.1" height="401.7"/>
		<rect class="st0" x="54" y="54.8" width="8.9" height="401.7"/>
		<rect class="st0" y="54.8" width="18" height="402"/>
		<rect class="st0" x="215.6" y="54.8" width="8.9" height="401.7"/>
		<rect class="st0" x="394.9" y="54.8" width="18" height="401.7"/>
		<rect class="st0" x="440" y="54.8" width="26.8" height="401.7"/>
		<rect class="st0" x="475.7" y="54.8" width="9.1" height="401.7"/>
		<rect class="st0" x="493.6" y="54.8" width="18" height="402"/>
		<rect class="st0" x="332" y="54.8" width="18" height="401.7"/>
		<rect class="st0" x="368" y="54.8" width="18" height="401.7"/>
		<rect class="st0" x="296.1" y="54.8" width="18" height="401.7"/>
		<rect class="st0" x="251.2" y="54.8" width="18" height="401.7"/>
</svg>
